<?xml version="1.0" encoding="utf-8"?>
<!-- Generator: Adobe Illustrator 23.0.3, SVG Export Plug-In . SVG Version: 6.00 Build 0)  -->
<svg version="1.1" id="Layer_1" xmlns="http://www.w3.org/2000/svg" xmlns:xlink="http://www.w3.org/1999/xlink" x="0px" y="0px"
	 width="59px" height="59px" viewBox="0 0 59 59" style="enable-background:new 0 0 59 59;" xml:space="preserve">
<style type="text/css">
	.st0{fill:#474E5D;}
	.st1{fill:#2E3544;}
	.st2{fill:#FFFFFF;}
	.st3{fill:#B6DCE2;}
	.st4{fill:#23B3C8;}
	.st5{fill:#32B363;}
	.st6{fill:#2B3B4E;}
	.st7{fill:#FFA000;}
	.st8{fill:#FF714F;}
	.st9{fill:#324A5E;}
	.st10{fill:#FFCC5C;}
</style>
<g>
	<g>
		<path class="st0" d="M23.9,47V20.2c0-0.5,0.4-0.9,0.9-0.9h19.7c0.5,0,0.9,0.4,0.9,0.9V47c0,0.5-0.4,0.9-0.9,0.9H24.8
			C24.3,47.9,23.9,47.5,23.9,47z"/>
		<circle class="st1" cx="34.6" cy="46.6" r="0.7"/>
		<rect x="24.8" y="21.9" class="st2" width="19.7" height="23.3"/>
	</g>
	<g>
		<path class="st3" d="M18.1,21.8c-3.7,3.7-3.7,9.7,0,13.3c3.7,3.7,9.7,3.7,13.3,0c3.7-3.7,3.7-9.7,0-13.3
			C27.7,18.1,21.8,18.1,18.1,21.8z"/>
		<g>
			<path class="st4" d="M20.7,19.9c0.3,0.1,0.8-0.1,1.1-0.2c0,0,0,0.1,0,0.1c-0.2,0.2-0.4,0-0.6,0.1c-0.2,0.1-0.3,0.4-0.2,0.6
				c0.2,0,0.5-0.1,0.7-0.1c0.3,0.1,0.4,0.3,0.7,0.3c0.6-0.1,0.7-0.8,1.3,0c0.2,0.3,0.1,0.4,0.4,0.5c0.3,0.1,0.5-0.2,0.6,0.1
				c0.1,0.3-0.2,0.4,0.1,0.6c0.1,0.1,0.7,0.1,0.8,0c0.3-0.1,0.5-0.5,0.2-0.8c-0.2-0.2-0.6-0.2-0.8-0.3c0.1-0.1,0-0.3,0-0.4
				c0.1-0.2,0.2-0.1,0.4-0.3c0.4-0.3,0.1-0.3-0.3-0.1c0.1-0.3,0.8-0.1,0.7-0.5c0.3,0.1,0.4-0.1,0.6-0.1c0.2,0,0.4,0.3,0.6,0.4
				c-0.1,0.2-0.2,0.5,0.2,0.6c-0.5,0.4-1.1-0.2-1.1,0.5c0,0.3,0.1,0.5,0,0.7c0,0.1-0.2,0.2-0.2,0.3c0,0.2,0.3,0.1,0.3,0.2
				c0.3,0.4,0.4,0.7,0.6,1.2c0.2,0.4,0.4,0.6,0.8,0.7c0.3,0.2,0.6,0.6,0.9,0.7c0.2,0.1,0.5-0.1,0.7-0.1c0.3,0,0.5,0.1,0.8,0
				c0.4-0.2,0.1-0.3,0.2-0.6c0-0.1,0.2-0.2,0.3-0.3c0-0.1-0.1-0.3,0-0.4c0.1-0.3,0.4-0.2,0.4-0.5c0.3,0.1,0.5,0.6,0.8,0.8
				c0.7,0.4,1.1,1.1,1.5,1.9c0.2,0.5,0.5,1,0.7,1.5c0-0.2,0-0.3,0-0.5c-0.4-1.8-1.2-3.4-2.6-4.8C28.5,18.9,24.2,18.2,20.7,19.9z"/>
			<path class="st5" d="M34,26.7c0,0,0-0.1,0-0.1C34,26.6,34,26.7,34,26.7z"/>
		</g>
		<path class="st4" d="M29.2,28.8c-0.3-0.1-0.6,0.2-0.9,0.4c-0.2,0.1-0.7,0.4-0.9,0.4c-0.4,0.1-0.7-0.1-1.1-0.1
			c-0.4,0-0.7,0.3-1,0.4c-0.4,0.1-0.7-0.1-1.1,0.2c-0.1,0.1-0.2,0.4-0.4,0.5c-0.2,0.1-0.3,0-0.5,0c-0.3,0.1-0.3,0.3-0.4,0.6
			c-0.1,0.3-0.1,0.3-0.3,0.5c-0.2,0.2-0.4,0.5-0.7,0.4c0,0,0,0-0.1,0c-0.1-0.1-0.2-0.2-0.3-0.2c0-0.1,0-0.3,0-0.3
			c-0.2-0.3-0.4,0.2-0.6,0.2c-0.5,0.1-0.2-0.5-0.5-0.7c-0.4-0.2-0.2,1.4-1.1,0.7c-0.3-0.2-0.5-0.8-0.4-1.2c0.1-0.2,0.3-0.3,0.4-0.4
			c0.1-0.2,0.1-0.4,0.3-0.5c0.5-0.2,0.7,0.4,1,0.6c0.2-0.2,0.1-0.5-0.1-0.7c-0.2-0.3-0.5-0.3-0.4-0.7c0.1-0.3,0.3-0.4,0.2-0.8
			c-0.1-0.2-0.2-0.4-0.2-0.5c0-0.3,0.2-0.3,0.3-0.6c0-0.2-0.1-0.3,0-0.5c0.1-0.2,0.4-0.2,0.4-0.5c0-0.2-0.2-0.1-0.3-0.3
			c-0.1-0.1-0.2,0-0.2-0.3c0-0.6,0.5-0.1,0.6-0.1c0.3,0,0.3-0.3,0.1-0.4c-0.1,0-0.2,0-0.4,0c-0.3-0.2-0.2-0.3-0.5-0.3
			c-0.3,0-0.6,0.1-0.8,0.1c-0.2-0.1-0.4-0.3-0.6-0.1c-0.3,0.2,0,0.3,0.1,0.5c0.1,0.2,0.1,0.5,0.1,0.7c0,0,0.1,0.6,0,0.5
			c-0.2-0.2-0.3-0.3-0.5-0.4c-0.2,0-0.3,0.1-0.5,0c-0.4-0.3,0.3-1.2,0.4-1.5c0.2-0.4,0.3-0.2,0.7-0.1c0.4,0.3,0.5-0.4,0.3-0.6
			c-0.2-0.3-0.8,0-0.9-0.3c-0.2-0.4,0.5-0.7,0.8-0.6c0.3,0.1,0.3,0.5,0.6,0.6c0.1,0,1,0,1-0.1c0-0.3-0.2-0.3-0.3-0.5
			c-0.1-0.3,0.3-0.8,0.1-1c-0.1-0.2-0.3,0-0.3,0c-0.3-0.2-1-0.1-1.3,0c-0.6,0.2-1,0.8-1.3,1.2c-0.3,0.4-0.5,0.9-0.8,1.3
			c-0.2,0.4-0.5,0.8-0.5,0.1c-0.1,0-0.2,0.1-0.3,0.3c-0.2,0.5-0.4,1-0.5,1.5c0,0.1,0,0.2,0,0.3c0.1-0.1,0.2-0.1,0.2-0.2
			c0.2,0.4,0,1.1,0.1,1.5c0.1,0.3,0.1,0.5,0.1,0.8c0,0.3,0,0.5,0,0.8c0.1,0.6,0.5,1,0.9,1.4c0.2,0.2,0.3,0.4,0.5,0.6
			c0.2,0.2,0.6,0.3,0.8,0.5c0.4,0.4,0.5,0.7,1.2,0.5c0.4-0.1,0.7-0.2,1.1-0.2c0.4,0,0.7,0.1,1.1,0.1c0.2,0,0.5,0.1,0.7-0.1
			c0.2-0.1,0.1-0.4,0.3-0.4c0.2,0,0.4,0.3,0.5,0.5c0.2,0.4,0,0.7,0.3,1.1c0,0.1,0.2,0.2,0.2,0.2c0,0,0,0.2,0.1,0.2
			c0.2,0.2,0.5,0.1,0.8,0.2c0.3,0.1,0.5,0.3,0.8,0.3c0.4,0.1,0.4,0,0.8-0.1c1.4-0.4,1.8,1.9,3.2,1.8c0.3,0,0.7-0.2,0.7-0.5
			c-0.9-0.1-0.3-0.9-0.2-1.5c0-0.3,0.1-0.6,0.1-0.9c0-0.4-0.2-0.7-0.2-1c0-0.3,0.4-0.5,0.4-0.9c0.1-0.4-0.2-0.5-0.4-0.8
			C29.4,29.9,29.9,29,29.2,28.8z"/>
		<path class="st4" d="M21,21.8L21,21.8c-0.1,0-0.1,0.1,0,0.1c0.2,0,0.4-0.1,0.5-0.3C21.3,21.1,21.1,21.7,21,21.8z"/>
		<path class="st4" d="M20.6,30.7c0.3,0,0.4-0.3,0.6-0.4c0.1,0,0.2,0.1,0.4,0c0.1-0.1,0.3-0.2,0.3-0.3l-0.1,0
			C21.6,30.1,20.4,30,20.6,30.7z"/>
		<path class="st4" d="M22.2,30.1c0.3,0.2,0.3-0.3,0.5-0.4l-0.1,0C22.5,29.6,21.9,29.9,22.2,30.1z"/>
		<path class="st4" d="M21.5,29.7c0,0-0.2,0.1-0.3,0.1c-0.2,0-0.1-0.3-0.3-0.1c0,0,0,0,0,0.1c0.2,0.2,0.2,0.4,0.5,0.3
			C21.7,30,21.7,29.8,21.5,29.7z"/>
		<path class="st4" d="M23.4,21.2L23.4,21.2c-0.1-0.1-0.4-0.2-0.4,0c0,0.2,0.3,0.2,0.5,0.1C23.5,21.3,23.4,21.2,23.4,21.2z"/>
		<path class="st4" d="M23.6,20.6c-0.2,0-1,0.3-1.1,0.4c0.2,0.3,0.4-0.1,0.7-0.1c0.1,0,0.2,0,0.3,0.1c0.1,0,0.2,0.1,0.3,0
			C24,20.9,23.8,20.7,23.6,20.6z"/>
	</g>
	<g>
		<path class="st6" d="M22.7,14.6l-7.5,1l1.2,9c4.7-2,7.8,0.8,7.8,0.8s2.3-3.5,7.3-2.9l-1.2-9L22.7,14.6z"/>
		<polygon class="st7" points="35.5,22.6 32.4,23 32.7,20.3 34.4,20 		"/>
		<rect x="32.9" y="13.2" transform="matrix(0.9906 -0.1369 0.1369 0.9906 -2.0347 4.7035)" class="st8" width="0.6" height="7.8"/>
		<polygon class="st9" points="22,9.5 10.3,16.3 23.4,19.7 35.1,12.9 		"/>
		<circle class="st10" cx="33.6" cy="20.2" r="1.2"/>
	</g>
</g>
</svg>
