<?xml version="1.0" encoding="utf-8"?>
<!-- Generator: Adobe Illustrator 16.0.0, SVG Export Plug-In . SVG Version: 6.00 Build 0)  -->
<!DOCTYPE svg PUBLIC "-//W3C//DTD SVG 1.1//EN" "http://www.w3.org/Graphics/SVG/1.1/DTD/svg11.dtd">
<svg version="1.1" id="Layer_1" xmlns="http://www.w3.org/2000/svg" xmlns:xlink="http://www.w3.org/1999/xlink" x="0px" y="0px"
	 width="59px" height="59px" viewBox="0 0 59 59" enable-background="new 0 0 59 59" xml:space="preserve">
<g>
	<path fill="#C5D1DD" d="M27.726,39.121v3.76c0,3.635,2.946,6.58,6.579,6.58h9.4c3.637,0,6.582-2.945,6.582-6.58v-3.76
		c0-3.635-2.945-6.58-6.582-6.58h-9.4C30.672,32.541,27.726,35.486,27.726,39.121z"/>
	<path fill="#11AACC" d="M34.305,47.582c-2.596,0-4.7-2.105-4.7-4.701v-0.939h5.641v5.641H34.305z"/>
	<path fill="#11AACC" d="M43.705,34.42c2.598,0,4.701,2.105,4.701,4.701v3.76c0,2.596-2.104,4.701-4.701,4.701h-6.58V34.42H43.705z"
		/>
	<path fill="#11AACC" d="M35.246,34.42v5.643h-5.641v-0.941c0-2.596,2.104-4.701,4.7-4.701H35.246z"/>
	<path fill="#566372" d="M24.45,34.67h-1.638c-0.904,0-1.637,0.732-1.637,1.637V40.4c0,0.904,0.733,1.639,1.637,1.639h5.022v-0.846
		l-5.595-0.221l0.109-5.348l2.211,0.189c0.904,0,0.846-0.24,0.846-1.145V22.524H24.45V34.67z"/>
	<g>
		<path fill="#55697D" d="M17.221,26.677c0,1.064,7.495,3.338,9.631,3.338c2.135,0,9.63-2.274,9.63-3.338l0.002-9.327l-19.263,0
			V26.677z"/>
		<polygon opacity="0.3" points="17.221,21.672 26.852,25.307 36.482,21.671 36.484,18.29 17.221,18.289 		"/>
		<polygon fill="#55697D" points="8.712,16.386 26.852,23.233 44.992,16.386 26.852,9.539 		"/>
		<polygon fill="#467293" points="8.712,16.386 8.712,17.324 26.853,24.172 44.99,17.325 44.992,16.386 26.852,23.233 		"/>
		<g>
			<path fill="#FFD55C" d="M37.563,24.908l-0.678-0.001h-0.066c0,0-1.773,2.507-0.607,5.021c0.273,0.001,0.492,0.001,0.666,0.001
				l0.002,0.002c0.016-0.003,0.119,0,0.688-0.002c0.002,0,0.002,0,0.004,0.002c0.176-0.002,0.393,0,0.666-0.002
				c1.166-2.515-0.609-5.022-0.609-5.022L37.563,24.908z"/>
			<g>
				<path fill="#FED96F" d="M37.846,27.818c-0.008-0.154-0.045-0.303-0.066-0.45c-0.027-0.146-0.053-0.291-0.078-0.431
					c-0.072-0.271-0.121-0.53-0.195-0.739c-0.127-0.428-0.244-0.69-0.246-0.691c0.002,0.001,0.102,0.277,0.193,0.714
					c0.059,0.214,0.09,0.475,0.141,0.749c0.014,0.138,0.029,0.283,0.045,0.428c0.012,0.146,0.035,0.293,0.033,0.442
					c0.002,0.148,0.004,0.297,0.006,0.444c0.008,0.146-0.002,0.288-0.018,0.425c-0.033,0.273-0.029,0.533-0.088,0.741
					c-0.045,0.197-0.08,0.358-0.107,0.48c0.035,0,0.064-0.002,0.102-0.002c0.002,0,0.002,0,0.004,0.002
					c0.07-0.002,0.148-0.002,0.23,0c0.018-0.118,0.039-0.254,0.063-0.415c0.041-0.23,0.021-0.506,0.035-0.795
					c0.006-0.146,0.004-0.295-0.012-0.445C37.873,28.124,37.859,27.969,37.846,27.818z"/>
				<path fill="#FED96F" d="M36.748,26.938c-0.027,0.14-0.053,0.283-0.078,0.43c-0.023,0.148-0.059,0.296-0.066,0.448
					c-0.014,0.154-0.027,0.307-0.039,0.459c-0.02,0.15-0.021,0.299-0.016,0.445c0.016,0.289-0.006,0.566,0.035,0.795
					c0.025,0.162,0.045,0.297,0.063,0.415c0.082,0,0.164-0.002,0.23-0.002l0.002,0.002c0.008-0.002,0.033,0,0.105,0
					c-0.027-0.121-0.064-0.283-0.109-0.479c-0.057-0.209-0.053-0.47-0.088-0.742c-0.016-0.137-0.025-0.279-0.016-0.426
					c0.002-0.146,0.004-0.296,0.006-0.443c-0.004-0.149,0.02-0.296,0.033-0.442c0.014-0.146,0.029-0.29,0.047-0.428
					c0.051-0.274,0.082-0.536,0.139-0.749c0.094-0.437,0.193-0.713,0.193-0.713s-0.121,0.263-0.246,0.69
					C36.869,26.408,36.818,26.666,36.748,26.938z"/>
				<path fill="#FED96F" d="M38.371,27.715c-0.139-0.646-0.418-1.212-0.65-1.601s-0.424-0.607-0.424-0.607s0.174,0.239,0.381,0.646
					c0.201,0.409,0.434,0.991,0.523,1.614c0.014,0.155,0.045,0.309,0.039,0.461c0.006,0.154,0.01,0.303-0.01,0.447
					c-0.008,0.144-0.027,0.279-0.059,0.406c-0.025,0.128-0.051,0.246-0.092,0.35c-0.063,0.216-0.141,0.377-0.199,0.488
					c-0.002,0.003-0.004,0.006-0.006,0.011c0.107,0,0.227-0.003,0.361-0.002c0.023-0.052,0.041-0.105,0.063-0.157
					c0.021-0.069,0.041-0.136,0.061-0.216c0.037-0.12,0.059-0.256,0.074-0.403c0.025-0.146,0.039-0.297,0.035-0.458
					c0.01-0.16-0.004-0.322-0.021-0.488C38.441,28.04,38.398,27.878,38.371,27.715z"/>
				<path fill="#FED96F" d="M37.059,29.928c0.074,0.002,0.182,0,0.33,0l-0.164-4.422L37.059,29.928z"/>
				<path fill="#FED96F" d="M36.078,27.715c-0.027,0.163-0.07,0.324-0.078,0.491c-0.018,0.165-0.029,0.328-0.02,0.487
					c-0.006,0.158,0.008,0.313,0.033,0.458c0.018,0.147,0.037,0.283,0.076,0.405c0.018,0.08,0.039,0.145,0.061,0.214
					c0.021,0.053,0.039,0.105,0.061,0.156c0.135,0.003,0.254,0.003,0.363,0.003c-0.002-0.005-0.002-0.008-0.008-0.011
					c-0.059-0.11-0.137-0.274-0.199-0.488c-0.039-0.103-0.066-0.221-0.09-0.35c-0.033-0.126-0.053-0.262-0.059-0.406
					c-0.02-0.145-0.018-0.293-0.014-0.447c-0.002-0.151,0.027-0.306,0.041-0.461c0.088-0.623,0.324-1.205,0.525-1.614
					c0.205-0.406,0.381-0.646,0.381-0.646s-0.191,0.219-0.428,0.605C36.496,26.503,36.217,27.069,36.078,27.715z"/>
			</g>
		</g>
		<circle fill="#FED96F" cx="37.225" cy="24.907" r="0.915"/>
		<ellipse opacity="0.3" cx="26.852" cy="16.385" rx="2.882" ry="1.709"/>
		<path fill="#FFD55C" d="M29.677,16.73c-0.099,0.28-0.312,0.536-0.61,0.749l-0.013,0.047l7.702,2.276l-0.002,5.105l0.941-0.001
			L37.693,19.1L29.677,16.73z"/>
		<ellipse fill="#55697D" cx="26.451" cy="16.148" rx="2.481" ry="1.471"/>
	</g>
</g>
</svg>
