<?xml version="1.0" encoding="utf-8"?>
<!-- Generator: Adobe Illustrator 23.0.3, SVG Export Plug-In . SVG Version: 6.00 Build 0)  -->
<svg version="1.1" id="Layer_1" xmlns="http://www.w3.org/2000/svg" xmlns:xlink="http://www.w3.org/1999/xlink" x="0px" y="0px"
	 width="59px" height="59px" viewBox="0 0 59 59" style="enable-background:new 0 0 59 59;" xml:space="preserve">
<style type="text/css">
	.st0{fill:#F83A2A;}
	.st1{fill:#464E5D;}
	.st2{clip-path:url(#SVGID_1_);fill:#E9E9F4;}
	.st3{opacity:0.46;clip-path:url(#SVGID_1_);}
	.st4{fill:none;stroke:#93766D;stroke-width:0.2231;stroke-miterlimit:10;}
	.st5{fill:#FFA000;}
	.st6{clip-path:url(#SVGID_2_);fill:#FFFFFF;}
	.st7{opacity:0.46;clip-path:url(#SVGID_2_);}
	.st8{fill:none;stroke:#93766D;stroke-width:0.2365;stroke-miterlimit:10;}
	.st9{opacity:0.41;clip-path:url(#SVGID_2_);fill:#93766D;}
	.st10{fill:#1BADC2;}
	.st11{clip-path:url(#SVGID_3_);fill:#E9E9F4;}
	.st12{opacity:0.46;clip-path:url(#SVGID_3_);}
	.st13{fill:none;stroke:#93766D;stroke-width:0.2167;stroke-miterlimit:10;}
	.st14{fill:#718096;}
	.st15{fill:#F2F2F2;}
	.st16{fill:#FFFFFF;}
	.st17{fill:#E8E8E8;}
	.st18{fill:#DBDBDA;}
	.st19{fill:#D5D5D5;}
	.st20{opacity:0.2;}
	.st21{opacity:0.53;fill:#4A1E35;}
	.st22{opacity:0.37;fill:#4A1E35;}
	.st23{fill:#EA8B2D;}
</style>
<g>
	<path class="st0" d="M42.6,24.6v5.7H15.1c-0.9,0-1.7-0.5-2.2-1.3c-0.2-0.4-0.3-0.8-0.3-1.2v-0.6c0-0.4,0.1-0.8,0.3-1.1
		c0.2-0.4,0.5-0.8,0.9-1c0.4-0.2,0.8-0.4,1.3-0.4H42.6z"/>
	<path class="st1" d="M42.7,24.6v5.7H31c-0.9,0-1.7-0.5-2.2-1.3c-0.2-0.4-0.3-0.8-0.3-1.2v-0.6c0-1.4,1.1-2.5,2.5-2.5H42.7z"/>
	<g>
		<defs>
			<path id="SVGID_7_" d="M42.7,29.9H31.5c-1.3,0-2.4-1.1-2.4-2.4v0c0-1.3,1.1-2.4,2.4-2.4h11.1V29.9z"/>
		</defs>
		<clipPath id="SVGID_1_">
			<use xlink:href="#SVGID_7_"  style="overflow:visible;"/>
		</clipPath>
		<path class="st2" d="M42.7,29.9H31.5c-1.3,0-2.4-1.1-2.4-2.4v0c0-1.3,1.1-2.4,2.4-2.4h11.1V29.9z"/>
		<g class="st3">
			<line class="st4" x1="43.1" y1="29.3" x2="28.1" y2="29.3"/>
			<line class="st4" x1="43.1" y1="28.4" x2="28.1" y2="28.4"/>
			<line class="st4" x1="43" y1="27.6" x2="28" y2="27.6"/>
			<line class="st4" x1="42.9" y1="26.7" x2="27.9" y2="26.7"/>
			<line class="st4" x1="43" y1="25.9" x2="28" y2="25.9"/>
		</g>
	</g>
	<g>
		<path class="st5" d="M13.7,35.4v6.1l27.6,0c0.9,0,1.7-0.6,2.2-1.4c0.2-0.4,0.3-0.8,0.3-1.3l0-0.7c0-1.5-1.1-2.7-2.5-2.7H13.7z"/>
		<path class="st1" d="M27.1,38.1v0.7c0,0.5-0.1,0.9-0.3,1.3c-0.4,0.8-1.3,1.4-2.3,1.4H12.3v-0.4h11.1c1.2,0,2.2-1,2.2-2.3v-0.6
			c0-1.3-1-2.3-2.2-2.3H12.3v-0.5h12.2C25.9,35.4,27.1,36.7,27.1,38.1z"/>
		<g>
			<defs>
				<path id="SVGID_9_" d="M12.3,41.1h11.6c1.4,0,2.6-1.2,2.6-2.6v0c0-1.4-1.2-2.6-2.6-2.6H12.3V41.1z"/>
			</defs>
			<clipPath id="SVGID_2_">
				<use xlink:href="#SVGID_9_"  style="overflow:visible;"/>
			</clipPath>
			<path class="st6" d="M12.3,41.1h11.6c1.4,0,2.6-1.2,2.6-2.6v0c0-1.4-1.2-2.6-2.6-2.6H12.3V41.1z"/>
			<g class="st7">
				<line class="st8" x1="11.8" y1="40.4" x2="27.5" y2="40.4"/>
				<line class="st8" x1="11.8" y1="39.5" x2="27.5" y2="39.5"/>
				<line class="st8" x1="11.9" y1="38.6" x2="27.6" y2="38.6"/>
				<line class="st8" x1="12" y1="37.7" x2="27.7" y2="37.7"/>
				<line class="st8" x1="11.9" y1="36.8" x2="27.6" y2="36.8"/>
			</g>
			<path class="st9" d="M24.5,41.1c0,0,1.5-0.5,1.6-2c0.1-1.5-0.7-2.6-1.8-2.8c-1.1-0.1-12.1,0-12.1,0l0.1-0.9l13.4-0.1l2.1,2.7
				l-0.2,3.1H24.5z"/>
		</g>
	</g>
	<path class="st10" d="M44.4,30.4v4.7h-33c-0.5,0-0.9-0.5-0.9-1v-2.7c0-0.6,0.4-1,0.9-1H44.4z"/>
	<g>
		<path class="st1" d="M44.4,35.1H30.7c-1.3,0-2.4-1.1-2.4-2.4v0c0-1.3,1.1-2.4,2.4-2.4h13.6V35.1z"/>
		<g>
			<defs>
				<path id="SVGID_11_" d="M44.4,34.8H31.1c-1.1,0-2-0.9-2-2v0c0-1.1,0.9-2,2-2h13.3V34.8z"/>
			</defs>
			<clipPath id="SVGID_3_">
				<use xlink:href="#SVGID_11_"  style="overflow:visible;"/>
			</clipPath>
			<path class="st11" d="M48.9,34.7H29.5c-0.3,0-0.6-0.3-0.6-0.6v-2.7c0-0.3,0.3-0.6,0.6-0.6h19.4c0.3,0,0,0.3,0,0.6v2.7
				C48.9,34.4,49.2,34.7,48.9,34.7z"/>
			<g class="st12">
				<line class="st13" x1="44.8" y1="34.2" x2="27.8" y2="34.2"/>
				<line class="st13" x1="44.8" y1="33.5" x2="27.8" y2="33.5"/>
				<line class="st13" x1="44.8" y1="32.8" x2="27.8" y2="32.8"/>
				<line class="st13" x1="44.7" y1="32.1" x2="27.7" y2="32.1"/>
				<line class="st13" x1="44.8" y1="31.4" x2="27.8" y2="31.4"/>
			</g>
		</g>
	</g>
</g>
<g>
	<g>
		<rect x="27.3" y="10.1" class="st14" width="0.9" height="14.2"/>
	</g>
	<g>
		<g>
			<g>
				<g>
					<g>
						<g>
							<g>
								<g>
									<g>
										<g>
											<path class="st1" d="M37.2,24.3c0.7,0,1.3-0.6,1.3-1.3V11.4c0-0.7-0.6-1.3-1.3-1.3l-8.4,0h-0.7v14.2H37.2z"/>
										</g>
									</g>
								</g>
							</g>
						</g>
					</g>
				</g>
			</g>
		</g>
		<g>
			<g>
				<g>
					<g>
						<g>
							<g>
								<g>
									<g>
										<g>
											<path class="st1" d="M18.2,24.3c-0.7,0-1.3-0.6-1.3-1.3V11.4c0-0.7,0.6-1.3,1.3-1.3l8.4,0h0.7v14.2H18.2z"/>
										</g>
									</g>
								</g>
							</g>
						</g>
					</g>
				</g>
			</g>
		</g>
		<g>
			<g>
				<g>
					<g>
						<g>
							<g>
								<g>
									<g>
										<g>
											<g>
												<path class="st15" d="M28.3,10.9h1.1h0.8h0.7v0h6.3c0.3,0,0.5,0.2,0.5,0.5V23c0,0.3-0.2,0.5-0.5,0.5h-8.9
													c-0.3,0-0.5-0.2-0.5-0.5v-9.1h0v-0.6v-0.7v-1.2C27.7,11.1,28,10.9,28.3,10.9z"/>
											</g>
										</g>
									</g>
								</g>
							</g>
						</g>
					</g>
				</g>
			</g>
			<g>
				<path class="st16" d="M37.2,23.5c0.3,0,0.5-0.2,0.5-0.5V11.4c0-0.3-0.2-0.5-0.5-0.5h-6.3v0h-0.7h-0.8h-0.2v12.7H37.2z"/>
			</g>
		</g>
		<g>
			<g>
				<g>
					<g>
						<g>
							<g>
								<g>
									<g>
										<g>
											<path class="st15" d="M18.2,10.9h1.1h0.8h0.7v0h6.3c0.3,0,0.5,0.2,0.5,0.5V23c0,0.3-0.2,0.5-0.5,0.5h-8.9
												c-0.3,0-0.5-0.2-0.5-0.5v-9.1l0,0v-0.6v-0.7v-1.2C17.7,11.1,17.9,10.9,18.2,10.9z"/>
										</g>
									</g>
								</g>
							</g>
						</g>
					</g>
				</g>
			</g>
		</g>
		<g>
			<path class="st16" d="M26.3,10.9h-5.5v0h-0.7h-0.8h-1.1c-0.3,0-0.5,0.2-0.5,0.5v1.2v0.7v0.6V23c0,0.2,0.1,0.3,0.2,0.4h8.4V10.9z"
				/>
		</g>
		<g>
			<g>
				<g>
					<g>
						<g>
							<g>
								<g>
									<g>
										<g>
											<g>
												<rect x="19.2" y="13.5" class="st17" width="5.5" height="0.6"/>
											</g>
										</g>
									</g>
								</g>
							</g>
						</g>
					</g>
				</g>
			</g>
			<g>
				<g>
					<g>
						<g>
							<g>
								<g>
									<g>
										<g>
											<g>
												<rect x="19.2" y="14.9" class="st17" width="5.5" height="0.6"/>
											</g>
										</g>
									</g>
								</g>
							</g>
						</g>
					</g>
				</g>
			</g>
			<g>
				<g>
					<g>
						<g>
							<g>
								<g>
									<g>
										<g>
											<g>
												<rect x="19.2" y="16.4" class="st17" width="5.5" height="0.6"/>
											</g>
										</g>
									</g>
								</g>
							</g>
						</g>
					</g>
				</g>
			</g>
		</g>
		<g>
			<g>
				<g>
					<g>
						<g>
							<g>
								<g>
									<g>
										<g>
											<g>
												<rect x="19.2" y="17.9" class="st17" width="5.5" height="0.6"/>
											</g>
										</g>
									</g>
								</g>
							</g>
						</g>
					</g>
				</g>
			</g>
			<g>
				<g>
					<g>
						<g>
							<g>
								<g>
									<g>
										<g>
											<g>
												<rect x="19.2" y="19.3" class="st17" width="5.5" height="0.6"/>
											</g>
										</g>
									</g>
								</g>
							</g>
						</g>
					</g>
				</g>
			</g>
			<g>
				<g>
					<g>
						<g>
							<g>
								<g>
									<g>
										<g>
											<g>
												<rect x="19.2" y="20.8" class="st17" width="5.5" height="0.6"/>
											</g>
										</g>
									</g>
								</g>
							</g>
						</g>
					</g>
				</g>
			</g>
		</g>
		<g>
			<g>
				<g>
					<g>
						<g>
							<g>
								<g>
									<g>
										<g>
											<rect x="27.3" y="10.9" class="st18" width="0.9" height="12.7"/>
										</g>
									</g>
								</g>
							</g>
						</g>
					</g>
				</g>
			</g>
		</g>
		<g>
			<g>
				<g>
					<g>
						<g>
							<g>
								<g>
									<g>
										<g>
											<g>
												<rect x="31.7" y="13.7" class="st19" width="3.6" height="0.6"/>
											</g>
										</g>
									</g>
								</g>
							</g>
						</g>
					</g>
				</g>
			</g>
			<g>
				<g>
					<g>
						<g>
							<g>
								<g>
									<g>
										<g>
											<g>
												<rect x="30.7" y="15.2" class="st19" width="5.5" height="0.6"/>
											</g>
										</g>
									</g>
								</g>
							</g>
						</g>
					</g>
				</g>
			</g>
		</g>
		<g>
			<g>
				<g>
					<g>
						<g>
							<g>
								<g>
									<g>
										<g>
											<g>
												<rect x="30.7" y="16.6" class="st19" width="5.5" height="0.6"/>
											</g>
										</g>
									</g>
								</g>
							</g>
						</g>
					</g>
				</g>
			</g>
			<g>
				<g>
					<g>
						<g>
							<g>
								<g>
									<g>
										<g>
											<g>
												<rect x="30.7" y="18.1" class="st19" width="5.5" height="0.6"/>
											</g>
										</g>
									</g>
								</g>
							</g>
						</g>
					</g>
				</g>
			</g>
			<g>
				<g>
					<g>
						<g>
							<g>
								<g>
									<g>
										<g>
											<g>
												<rect x="30.7" y="19.6" class="st19" width="5.5" height="0.6"/>
											</g>
										</g>
									</g>
								</g>
							</g>
						</g>
					</g>
				</g>
			</g>
		</g>
	</g>
	<g>
		<g class="st20">
			<polygon points="23,24.3 25.7,23.6 25.7,23.4 25.7,11.1 25.7,10.9 22.8,10.1 19.8,10.1 19.8,10.9 19.8,11.5 19.8,12.4 19.8,13.1 
				19.8,21.3 19.8,22.1 19.8,23 19.8,24.3 			"/>
		</g>
		<g>
			<path class="st16" d="M22.6,9.9L22.6,9.9l-0.5-0.1l-0.6-0.2l-0.8-0.2c-0.2-0.1-0.4,0.2-0.4,0.6v0.9v0.6v0.9v0.8v8.2v0.8V23v1.5
				v0.1c0,0,0,0,0,0c0,0.3,0.2,0.5,0.4,0.4l0.8-0.2l0.6-0.2l0.5-0.1v0l3.7-1v-0.1V11.1v-0.2L22.6,9.9z"/>
		</g>
		<g>
			<g>
				<g>
					<polygon class="st19" points="21.9,18.7 25.6,18.6 25.6,18 21.9,18.1 					"/>
				</g>
			</g>
			<g>
				<g>
					<polygon class="st19" points="21.9,20.2 25.6,20 25.6,19.4 21.9,19.5 					"/>
				</g>
			</g>
			<g>
				<g>
					<polygon class="st19" points="21.9,22 25.6,21.5 25.6,20.9 21.9,21.2 					"/>
				</g>
			</g>
		</g>
		<g>
			<g>
				<g>
					<polygon class="st19" points="21.9,16.6 25.6,16.6 25.6,17.2 21.9,17.2 					"/>
				</g>
			</g>
			<g>
				<g>
					<polygon class="st19" points="21.9,15 25.6,15.3 25.6,15.9 21.9,15.7 					"/>
				</g>
			</g>
			<g>
				<g>
					<polygon class="st19" points="21.9,13.2 25.6,13.8 25.6,14.3 21.9,14 					"/>
				</g>
			</g>
		</g>
	</g>
</g>
<path class="st21" d="M30.8,30.2H14.9c-0.9,0-1.7-0.5-2.2-1.3h15.9C29.1,29.7,29.9,30.2,30.8,30.2z"/>
<path class="st22" d="M30.5,35.1h-19c-0.6,0-1-0.5-1-1.1v0l18.3,0.1l0.7,0.7C30.1,35,30.1,35.1,30.5,35.1z"/>
<path class="st23" d="M43.4,40.1c-0.4,0.8-1,1.4-2.5,1.4H24.5c1,0,1.8-0.6,2.2-1.4H43.4z"/>
</svg>
