<?xml version="1.0" encoding="utf-8"?>
<!-- Generator: Adobe Illustrator 23.0.3, SVG Export Plug-In . SVG Version: 6.00 Build 0)  -->
<svg version="1.1" id="Layer_1" xmlns="http://www.w3.org/2000/svg" xmlns:xlink="http://www.w3.org/1999/xlink" x="0px" y="0px"
	 width="59px" height="59px" viewBox="0 0 59 59" style="enable-background:new 0 0 59 59;" xml:space="preserve">
<style type="text/css">
	.st0{fill:#38404F;}
	.st1{fill:#0399AE;}
	.st2{fill-rule:evenodd;clip-rule:evenodd;fill:#FFFFFF;stroke:#4C4D49;stroke-miterlimit:10;}
	.st3{fill-rule:evenodd;clip-rule:evenodd;fill:#FFC910;}
	.st4{fill-rule:evenodd;clip-rule:evenodd;fill:#F83A2A;}
	.st5{fill-rule:evenodd;clip-rule:evenodd;fill:#4C4D49;}
	.st6{fill:#23B3C8;}
	.st7{fill-rule:evenodd;clip-rule:evenodd;fill:#FFFFFF;}
	.st8{fill:#FFFFFF;}
	.st9{fill-rule:evenodd;clip-rule:evenodd;fill:#0399AE;}
</style>
<path marker-end="none" marker-start="none" class="st0" d="M13.7,40.7V21c0-0.2,0-0.3,0.1-0.4l2.1-2.8c0.1-0.2,0.3-0.3,0.6-0.3h7
	c0.2,0,0.4,0.1,0.6,0.3l1.9,2.5h15c0.4,0,0.7,0.3,0.7,0.7v19.6c0,0.4-0.3,0.7-0.7,0.7H14.4C14,41.4,13.7,41,13.7,40.7z"/>
<g id="Group_36">
	<path marker-end="none" marker-start="none" class="st1" d="M14.3,21v19.7H41V21H25.5l-2.1-2.8h-7L14.3,21z"/>
</g>
<path class="st2" d="M45.1,15.7l-0.1,16l-23-0.1l0.1-16L45.1,15.7z"/>
<circle class="st3" cx="28.2" cy="25.4" r="3.6"/>
<path class="st4" d="M33.9,24.2h10v0.6h-10V24.2z"/>
<path class="st4" d="M33.9,26.2h10v0.6h-10V26.2z"/>
<path class="st4" d="M33.9,28.2h10v0.6h-10V28.2z"/>
<rect x="21.5" y="15.2" class="st5" width="23.9" height="4.7"/>
<g id="Group_37">
	<path marker-end="none" marker-start="none" class="st0" d="M13.6,43V25c0-0.4,0.3-0.7,0.7-0.7h26.5c0.4,0,0.7,0.3,0.7,0.7v18
		c0,0.4-0.3,0.7-0.7,0.7H14.3C13.9,43.8,13.6,43.4,13.6,43z"/>
	<path marker-end="none" marker-start="none" class="st6" d="M14.3,25.1v18h26.5v-18C40.8,25.1,14.3,25.1,14.3,25.1z"/>
</g>
<path class="st7" d="M42.9,17.6l1,1c0.1,0.1,0.1,0.3,0,0.4s-0.3,0.1-0.4,0l-1-1l-1,1c-0.1,0.1-0.3,0.1-0.4,0c-0.1-0.1-0.1-0.3,0-0.4
	l1-1l-1-1c-0.1-0.1-0.1-0.3,0-0.4s0.3-0.1,0.4,0l1,1l1-1c0.1-0.1,0.3-0.1,0.4,0c0.1,0.1,0.1,0.3,0,0.4L42.9,17.6z"/>
<g>
	<rect x="37" y="16.4" class="st5" width="2.5" height="2.5"/>
	<path class="st8" d="M39.3,16.6v2h-2v-2H39.3 M39.8,16.1h-0.5h-2h-0.5v0.5v2v0.5h0.5h2h0.5v-0.5v-2V16.1L39.8,16.1z"/>
</g>
<path class="st7" d="M14.3,41.1h26.5v2H14.3V41.1z"/>
<path class="st4" d="M33.9,22.2h10v0.6h-10V22.2z"/>
<path class="st9" d="M14.3,39.1h26.5v2H14.3V39.1z"/>
</svg>
